<?xml version="1.0" encoding="UTF-8"?><svg id="Layer_2" xmlns="http://www.w3.org/2000/svg" viewBox="0 0 492.19 509.69"><defs><style>.cls-1{fill:#8a0194;}</style></defs><g id="Layer_1-2"><path class="cls-1" d="m490.02,423.34c-2.78-9.39-7.26-18.35-13.43-26.89-6.18-8.53-13.55-16.69-22.11-24.48-8.57-7.79-17.27-15.06-26.09-21.81-8.83-6.75-17.4-13.07-25.71-18.96-8.31-5.89-15.32-11.14-21-15.76,3.97-.22,8.42-1.12,13.35-2.7,4.92-1.57,9.6-3.64,14.05-6.2,4.44-2.55,8.37-5.54,11.81-8.96,3.43-3.42,5.67-7.2,6.71-11.35,1.04-4.14,1.41-9.01,1.1-14.6-.31-5.58-2.14-11.68-5.49-18.28-3.36-6.6-8.75-13.64-16.16-21.15-7.42-7.5-17.75-15.06-31.01-22.69-3-1.73-6.19-3.45-9.54-5.19-.91-9-3.02-18.31-6.36-27.92-7.45-21.46-21.36-42.53-41.74-63.21-20.38-20.68-47.32-40.07-80.83-58.19-8.85-4.78-18.19-9.34-28.01-13.69-20.58-9.12-43.28-17.31-68.12-24.54-8.19-2.39-16.61-4.67-25.27-6.85C95.44,4.72,78.23,1.61,64.53.61,50.82-.4,39.87-.15,31.66,1.32c-8.21,1.49-14.13,3.6-17.76,6.36-3.63,2.76-5.71,5.17-6.23,7.25-.64,2.54.29,4.91,2.79,7.13,2.5,2.23,5.13,3.68,7.9,4.38,27.42,6.91,52.89,13.94,76.42,21.09-.97.79-1.95,1.59-2.92,2.38-1.18.95-3.45,2.89-4.55,3.95-5.9,5.3-11.91,11-17.32,16.77-97.49,103.37-92.43,268.02,10.72,365.24,72.11,69.94,182.43,91.94,275.37,58.44,6.67,1.16,13.45,2.18,20.35,3.07,17.9,2.31,34.66,2.61,50.27.91,15.61-1.7,29.2-6.11,40.79-13.23,11.58-7.12,19.21-17.93,22.86-32.44,2.55-10.13,2.44-19.89-.34-29.28Zm-111.81-174.33c8.54,4.97,15.24,9.96,20.1,14.98,4.85,5.02,6.73,9.72,5.63,14.09-1.04,4.15-4.94,7.45-11.68,9.91-5.94,2.18-12.1,3.32-18.49,3.42-6.4.11-12.31-.22-17.75-.98-5.44-.76-10.06-1.62-13.86-2.57-3.8-.96-6.07-1.4-6.82-1.35-.75.06-2.05-.15-3.89-.61-.13-.03-.26-.06-.39-.09,3.02-2.37,5.88-4.87,8.54-7.5,11.28-11.14,19.07-23.6,23.4-37.38,5.42,2.66,10.5,5.35,15.2,8.08Zm87.12,192.17c-1.8,7.14-7.09,12.11-15.88,14.91-8.22,2.63-17.77,4.05-28.61,4.3-.74.02-1.48.04-2.23.05-.25,0-.51,0-.76,0-11.55.05-23.68-.86-36.38-2.74-12.98-1.92-24.65-4.19-35.01-6.8-6.22-1.57-13.27-3.71-21.15-6.43-7.89-2.72-16.03-5.63-24.43-8.72-8.4-3.09-16.76-6.36-25.07-9.81-8.32-3.44-16.04-6.55-23.18-9.33-7.14-2.78-35.26-16.12-40.73-18.23-5.47-2.11-9.47-3.49-12-4.12-5.29-1.33-9.35-1.74-12.18-1.23-2.82.52-4.79,2.96-5.89,7.33-1.28,5.07-.21,10.29,3.21,15.68,3.42,5.39,8.36,10.55,14.83,15.49,6.47,4.93,35.9,20.62,44.65,25.28,8.74,4.65,17.82,8.95,27.23,12.92,9.41,3.96,18.74,7.48,28.01,10.54,9.26,3.07,17.7,5.56,25.29,7.47,6.4,1.61,12.92,3.08,19.55,4.41-4.48,1.09-8.99,2.07-13.53,2.89-101.94,19.15-207.22-31.55-255.72-123.13-56.92-105.53-23.6-238.74,77.51-303.54.49-.32.99-.62,1.48-.94,7.23,2.67,14.24,5.36,20.96,8.07,42.23,17.01,75.86,33.93,100.88,50.75,25.01,16.83,42.25,32.99,51.7,48.46,3.23,5.3,5.7,10.44,7.45,15.43-3.02-1.23-6.11-2.46-9.3-3.69-20.08-7.75-44.4-15.22-72.95-22.41-23.25-5.86-42.32-9.37-57.21-10.55-1.57-.12-3.09-.23-4.59-.33.08-3.65.16-7.26.23-10.78.19-10.48.25-19.71.18-27.68-.08-7.97-.23-13.46-.45-16.46-.51-5.76-1.44-9.36-2.79-10.8-1.35-1.44-3.06-2.43-5.13-2.95-3.34-.35-5.66.59-6.96,2.84-1.3,2.24-2.07,3.83-2.3,4.75-1.92,11.52-3.67,22.83-5.24,33.94-1.06,8.64-2.11,17.66-3.15,27.02-1.8.15-3.49.34-5.08.57-8.64,1.26-14.7,3.22-18.19,5.88-3.48,2.67-5.47,4.93-5.93,6.77-.64,2.54.05,5.65,2.06,9.33,2.01,3.69,5.43,6.14,10.27,7.36,2.21.11,7.02.77,14.43,1.99-.49,17.56-1.11,31.4-1.88,41.48-.8,10.45-1.03,17.43-.68,20.94.45,3.05,1.12,6.22,2.01,9.51.88,3.29,3.17,5.39,6.86,6.32,4.6,1.16,8.29.38,11.06-2.36,2.77-2.73,4.73-6.39,5.89-11,.58-2.3,1.15-7.24,1.71-14.81.56-7.57,1.02-16.45,1.39-26.65.21-6.01.43-12.29.65-18.82,1.69.3,3.4.59,5.15.9,11.25,1.98,22.88,4.17,34.88,6.58,12,2.41,22.38,4.72,31.13,6.92,5.99,1.51,13.85,3.8,23.61,6.87,9.75,3.07,20.13,6.6,31.12,10.59,5.64,2.05,11.27,4.2,16.89,6.43-4.15,7.58-10.63,14.38-19.43,20.38-1.78,1.22-3.65,2.39-5.58,3.52,0-.32-.01-.66-.01-.98-.13-9.21-.07-15.26.16-18.14.23-1.9-.24-3.92-1.41-6.05-1.18-2.13-2.69-3.43-4.53-3.9-1.85-.46-3.73.47-5.66,2.8-1.94,2.33-3.1,4.3-3.51,5.91-2.33,9.25-4.27,19.2-5.83,29.86-7.02,2.48-14.66,4.6-22.93,6.33-20.16,4.23-43.34,5.85-69.54,4.89-26.2-.97-54.15-5.19-83.85-12.67-8.29-2.09-15.14-4.05-20.55-5.91-5.41-1.85-10.19-3.3-14.33-4.35-3.91-.99-7.26-1.28-10.06-.88-2.79.4-4.85,2.27-6.19,5.6-1.04,4.15-.39,8.35,1.96,12.61,2.36,4.27,5.33,8.26,8.92,11.98,3.6,3.72,7.39,6.88,11.39,9.48,4,2.6,6.98,4.39,8.93,5.37,1.72.92,5.06,2.25,10.01,3.99,4.95,1.73,11.22,3.56,18.82,5.47,35.92,9.05,68.12,13.61,96.63,13.69,25.07.07,47.06-2.49,65.97-7.66-.59,9.28-1.05,18.45-1.37,27.51-.42,11.89-.56,22.88-.4,32.95.15,10.08.44,18.9.86,26.48.42,7.58.88,13.26,1.39,17.06.34.58.53,1.55.56,2.89.03,1.36.34,2.78.94,4.28.6,1.5,1.59,2.91,2.97,4.24,1.38,1.33,3.33,2.31,5.87,2.95,4.6,1.16,8.14.71,10.63-1.36,2.48-2.07,4.33-5.52,5.55-10.36.93-3.68,1.52-10.39,1.76-20.12.25-9.73.24-20.87-.03-33.43-.27-12.55-.66-25.81-1.18-39.78-.3-8.01-.57-15.74-.8-23.21,2.99-1.44,5.88-2.95,8.65-4.54.82,2.32,1.83,4.23,3.03,5.71,1.49,1.84,3.3,3.4,5.43,4.67,2.12,1.27,4.67,2.59,7.64,3.94,2.96,1.36,6.34,3.25,10.14,5.68,8.68,5.37,17.84,11.54,27.48,18.49,9.63,6.96,19.18,14.26,28.64,21.9,9.46,7.65,18.38,15.46,26.78,23.46,8.39,7.99,15.68,15.76,21.85,23.32,6.07,7.42,10.63,14.46,13.7,21.13.03.07.07.15.11.22.02.05.05.09.07.14,3.07,6.78,3.97,12.69,2.69,17.76Z"/></g></svg>